<svg width="523.2" height="50.3" viewBox="0 0 523.2 75.3" xmlns="http://www.w3.org/2000/svg"><g id="svgGroup" stroke-linecap="round" fill-rule="evenodd" font-size="9pt" stroke="#000" stroke-width="0.25mm" fill="none" style="stroke:#000;stroke-width:0.25mm;fill:#f9ab00"><path d="M 2.9 33.5 L 2.4 14.6 A 33.043 33.043 0 0 0 2.302 11.973 Q 2.088 9.288 1.4 7.5 Q 0.4 4.9 0.4 4.7 A 1.704 1.704 0 0 1 1.051 3.43 Q 2.237 2.361 5.587 1.612 A 36.242 36.242 0 0 1 7.15 1.3 Q 12.689 0.315 16.073 0.139 A 26.521 26.521 0 0 1 17.45 0.1 A 11.222 11.222 0 0 1 18.713 0.165 Q 19.973 0.308 20.626 0.77 A 1.56 1.56 0 0 1 21.3 1.8 Q 27.495 29.433 31.757 40.433 A 63.917 63.917 0 0 0 31.9 40.8 A 5.106 5.106 0 0 0 32.105 41.238 Q 32.493 41.965 32.91 41.999 A 0.503 0.503 0 0 0 32.95 42 A 0.709 0.709 0 0 0 33.41 41.822 Q 33.678 41.599 33.9 41.1 Q 40.6 22.2 45.7 3.7 Q 46.1 2.5 47.7 1.85 Q 49.3 1.2 53.25 0.6 Q 57.2 0 61.1 0 A 14.528 14.528 0 0 1 62.325 0.047 Q 65 0.275 65 1.6 A 0.402 0.402 0 0 1 64.995 1.646 Q 64.963 1.881 64.7 3.15 Q 64.4 4.6 64.1 6.7 A 400.283 400.283 0 0 0 63.861 8.402 Q 63.65 9.925 63.4 11.8 A 127.292 127.292 0 0 0 62.737 18.23 Q 62.477 21.519 62.333 25.173 A 216.098 216.098 0 0 0 62.25 27.65 Q 62 36.6 62 45.6 L 62.2 56.1 Q 62.2 63.3 63.15 66.35 Q 64.1 69.4 64.1 69.85 Q 64.1 70.3 63.4 70.9 Q 61.174 72.695 57.299 73.201 A 25.538 25.538 0 0 1 54 73.4 A 8.895 8.895 0 0 1 52.443 73.275 Q 51.646 73.133 51.06 72.828 A 2.864 2.864 0 0 1 49.5 70.7 A 9.393 9.393 0 0 1 49.369 69.897 Q 49.2 68.538 49.2 66.25 A 81.46 81.46 0 0 1 49.221 64.662 Q 49.313 60.256 49.8 47.5 Q 50.378 32.387 50.399 25.196 A 182.055 182.055 0 0 0 50.4 24.65 Q 50.4 17.5 49.6 17.5 A 0.3 0.3 0 0 0 49.567 17.502 Q 49.533 17.506 49.517 17.518 A 0.038 0.038 0 0 0 49.5 17.55 A 0.036 0.036 0 0 1 49.486 17.574 Q 49.442 17.615 49.259 17.68 A 3.624 3.624 0 0 1 49.2 17.7 Q 48.946 17.785 48.011 19.949 A 70.761 70.761 0 0 0 47.65 20.8 Q 46.48 23.607 43.165 34.12 A 964.074 964.074 0 0 0 42.7 35.6 Q 39 47.4 36 57.65 A 3019.128 3019.128 0 0 1 35.292 60.065 Q 33.113 67.489 32.742 68.58 A 4.221 4.221 0 0 1 32.7 68.7 A 4.534 4.534 0 0 1 31.693 70.251 Q 30.522 71.4 28.5 71.4 A 3.299 3.299 0 0 1 27.341 71.204 A 2.891 2.891 0 0 1 26.1 70.3 A 284.99 284.99 0 0 0 24.188 62.106 Q 20.85 48.625 14.7 28 L 11.9 18.9 Q 11.73 18.475 11.56 18.411 A 0.17 0.17 0 0 0 11.5 18.4 Q 11.064 18.4 10.856 18.933 A 1.885 1.885 0 0 0 10.8 19.1 Q 10.4 25.6 10.4 44.65 A 417.622 417.622 0 0 0 10.449 51.3 Q 10.613 61.56 11.324 66.332 A 19.883 19.883 0 0 0 11.8 68.7 A 0.746 0.746 0 0 1 11.853 68.845 Q 11.9 69.025 11.9 69.3 A 2.429 2.429 0 0 1 10.941 71.23 Q 10.121 71.912 8.6 72.35 Q 5.65 73.199 3.22 73.289 A 15.378 15.378 0 0 1 2.65 73.3 A 8.836 8.836 0 0 1 1.783 73.261 Q 0.932 73.177 0.487 72.909 A 0.904 0.904 0 0 1 0 72.1 A 0.259 0.259 0 0 1 0.008 72.053 Q 0.055 71.847 0.382 70.857 A 131.441 131.441 0 0 1 0.5 70.5 A 34.361 34.361 0 0 0 1.317 66.965 Q 2.137 62.445 2.45 55.7 Q 2.837 47.364 2.891 36.96 A 662.12 662.12 0 0 0 2.9 33.5 Z M 225.9 17 L 226.3 13.9 Q 226.3 9.3 222.7 8 A 30.864 30.864 0 0 0 221.381 7.606 Q 219.978 7.224 218.993 7.13 A 6.306 6.306 0 0 0 218.4 7.1 L 218.3 7.1 Q 215.432 7.1 213.295 7.968 A 9.754 9.754 0 0 0 213.1 8.05 A 10.597 10.597 0 0 0 211.729 8.756 Q 210.556 9.481 209.9 10.4 A 13.351 13.351 0 0 0 208.141 13.662 A 11.365 11.365 0 0 0 207.5 16.5 Q 207.5 20.3 210.9 23.05 A 30.269 30.269 0 0 0 215.151 25.904 A 40.173 40.173 0 0 0 219.15 27.85 Q 224 29.9 228.85 32.3 Q 233.7 34.7 237.1 39.2 A 16.772 16.772 0 0 1 240.38 47.701 A 21.62 21.62 0 0 1 240.5 50 A 30.944 30.944 0 0 1 239.705 57.244 A 19.54 19.54 0 0 1 232.75 68.4 Q 225 74.5 215.15 74.5 A 35.899 35.899 0 0 1 207.974 73.821 Q 203.43 72.894 199.852 70.702 A 22.071 22.071 0 0 1 198.85 70.05 Q 192.462 65.643 192.401 58.244 A 17.337 17.337 0 0 1 192.4 58.1 L 192.4 58 A 20.189 20.189 0 0 1 192.62 54.944 Q 192.903 53.097 193.55 51.55 Q 194.37 49.59 195.418 48.366 A 6.874 6.874 0 0 1 196.3 47.5 Q 198.363 45.812 200.191 45.101 A 7.318 7.318 0 0 1 202.3 44.6 L 203.5 44.5 Q 206.3 44.5 208.6 45.85 A 5.369 5.369 0 0 1 209.859 46.846 A 3.938 3.938 0 0 1 210.9 49.6 A 2.043 2.043 0 0 1 210.286 51.061 Q 210.006 51.35 209.6 51.6 A 6.023 6.023 0 0 0 208.214 52.792 A 8.267 8.267 0 0 0 207.35 54 A 11.772 11.772 0 0 0 206.861 54.906 Q 206.37 55.927 206.3 56.7 L 206.1 57.8 A 10.084 10.084 0 0 0 206.592 61.056 Q 207.76 64.493 211.7 65.9 A 18.279 18.279 0 0 0 212.817 66.254 Q 213.903 66.557 214.685 66.595 A 4.487 4.487 0 0 0 214.9 66.6 A 14.877 14.877 0 0 0 218.832 66.107 A 11.024 11.024 0 0 0 223.75 63.3 Q 227.1 60 227.1 54.9 Q 227.1 48.8 221.9 45 Q 218 42.2 213.45 40.3 A 315.986 315.986 0 0 1 211.479 39.47 Q 208.525 38.213 207.3 37.6 A 41.352 41.352 0 0 1 205.437 36.605 A 52.909 52.909 0 0 1 203.9 35.7 A 19.652 19.652 0 0 1 202.494 34.749 Q 201.275 33.85 199.9 32.6 A 13.795 13.795 0 0 1 195.217 23.412 A 19.403 19.403 0 0 1 195.1 21.25 A 21.71 21.71 0 0 1 195.873 15.328 A 17.278 17.278 0 0 1 199 9.2 A 22.488 22.488 0 0 1 212.119 1.126 A 35.369 35.369 0 0 1 220 0.3 A 31.965 31.965 0 0 1 225.633 0.77 Q 228.932 1.361 231.632 2.694 A 19.184 19.184 0 0 1 232.5 3.15 A 12.222 12.222 0 0 1 235.079 5.032 A 8.013 8.013 0 0 1 237.6 11 A 10.408 10.408 0 0 1 237.215 13.896 A 8.239 8.239 0 0 1 235.55 17 A 6.544 6.544 0 0 1 230.793 19.385 A 8.191 8.191 0 0 1 230.3 19.4 Q 228.8 19.4 227.35 18.8 Q 225.9 18.2 225.9 17 Z M 310.1 28.4 L 310.7 27.9 L 310.3 17 Q 310.1 14.2 309.1 12.2 Q 308.331 10.663 307.681 9.953 A 2.819 2.819 0 0 0 307.3 9.6 L 306.4 9.1 Q 305.8 8.7 305.8 8.2 Q 305.8 6.915 309.211 5.264 A 30.546 30.546 0 0 1 310.45 4.7 Q 314.264 3.06 316.699 2.765 A 8.35 8.35 0 0 1 317.7 2.7 A 9.38 9.38 0 0 1 318.591 2.739 Q 320.338 2.906 320.5 3.8 Q 320.91 6.59 320.984 13.521 A 304.884 304.884 0 0 1 321 16.75 Q 321 26.3 320.55 35.5 Q 320.13 44.089 320.102 54.814 A 590.659 590.659 0 0 0 320.1 56.35 Q 320.1 65.889 321.106 69.629 A 7.41 7.41 0 0 0 321.6 71 Q 321.922 71.563 321.985 72.061 A 1.903 1.903 0 0 1 322 72.3 A 1.02 1.02 0 0 1 321.445 73.184 Q 320.608 73.705 318.511 73.785 A 21.163 21.163 0 0 1 317.7 73.8 Q 312.929 73.8 310.934 72.48 A 2.946 2.946 0 0 1 309.5 69.9 Q 309.347 68.68 309.311 66.441 A 92.532 92.532 0 0 1 309.3 64.95 A 59.708 59.708 0 0 1 309.336 63.061 Q 309.452 59.456 309.95 52.45 Q 310.486 44.908 310.58 40.22 A 93.454 93.454 0 0 0 310.6 38.35 Q 310.6 33.4 305.65 33.4 A 7.191 7.191 0 0 0 299.774 36.364 Q 298.9 37.472 298.193 38.995 A 17.565 17.565 0 0 0 298.1 39.2 A 29.638 29.638 0 0 0 295.821 46.722 A 26.158 26.158 0 0 0 295.5 50.8 A 36.642 36.642 0 0 0 295.709 54.902 Q 296.638 63.1 301.7 63.1 Q 302.6 63.1 303.45 62.75 A 17.544 17.544 0 0 1 303.746 62.631 Q 304.325 62.405 304.493 62.4 A 0.249 0.249 0 0 1 304.5 62.4 Q 305.229 62.4 305.667 63.23 A 3.002 3.002 0 0 1 305.75 63.4 A 5.096 5.096 0 0 1 306.144 64.697 A 4.493 4.493 0 0 1 306.2 65.4 A 7.251 7.251 0 0 1 303.905 70.777 A 9.571 9.571 0 0 1 303.5 71.15 A 9.512 9.512 0 0 1 297.739 73.472 A 12.326 12.326 0 0 1 296.9 73.5 Q 291.471 73.5 288.458 69.202 A 13.252 13.252 0 0 1 287.85 68.25 A 21.45 21.45 0 0 1 285.493 62.055 Q 284.8 58.917 284.8 55.2 Q 284.8 45.3 289.5 36.8 Q 291.9 32.6 296 30.05 A 17.015 17.015 0 0 1 304.335 27.523 A 20.602 20.602 0 0 1 305.3 27.5 A 12.408 12.408 0 0 1 307.089 27.623 A 9.589 9.589 0 0 1 308.55 27.95 A 129.683 129.683 0 0 0 308.891 28.056 Q 309.911 28.369 310.076 28.397 A 0.158 0.158 0 0 0 310.1 28.4 Z M 144.8 18.7 L 144.7 28.4 A 1.331 1.331 0 0 0 144.715 28.612 Q 144.775 28.982 145.071 28.999 A 0.505 0.505 0 0 0 145.1 29 A 1.159 1.159 0 0 0 145.575 28.894 Q 145.738 28.822 145.9 28.7 A 7.887 7.887 0 0 1 147.907 27.75 Q 149.89 27.106 152.817 27.015 A 31.797 31.797 0 0 1 153.8 27 A 20.729 20.729 0 0 1 158.476 27.491 Q 161.476 28.186 163.586 29.866 A 11.325 11.325 0 0 1 166.4 33.2 A 9.014 9.014 0 0 1 167.266 35.408 Q 167.537 36.467 167.639 37.723 A 19.527 19.527 0 0 1 167.7 39.3 Q 167.7 42.209 167.436 46.819 A 302.457 302.457 0 0 1 167.25 49.8 Q 166.836 55.97 166.803 58.833 A 40.902 40.902 0 0 0 166.8 59.3 Q 166.8 69.1 169.6 72.3 A 2.254 2.254 0 0 1 169.858 72.605 Q 169.985 72.787 170.045 72.969 A 1.048 1.048 0 0 1 170.1 73.3 A 0.567 0.567 0 0 1 169.772 73.776 Q 168.974 74.262 166.239 74.297 A 34.141 34.141 0 0 1 165.8 74.3 Q 155.939 74.3 154.461 66.496 A 16.113 16.113 0 0 1 154.2 63.5 Q 154.2 59.3 156.2 51.7 Q 157.739 45.854 158.094 42.374 A 18.648 18.648 0 0 0 158.2 40.5 A 12.227 12.227 0 0 0 158.021 38.339 Q 157.809 37.158 157.344 36.222 A 5.954 5.954 0 0 0 156.5 34.95 A 5.565 5.565 0 0 0 153.05 33.093 A 8.055 8.055 0 0 0 151.8 33 Q 148.8 33 147.05 34.3 A 8.604 8.604 0 0 0 146.089 35.121 Q 145.632 35.579 145.335 36.049 A 3.659 3.659 0 0 0 144.9 37 L 144.6 38.3 A 36.937 36.937 0 0 0 144.566 39.304 Q 144.512 41.614 144.502 47.629 A 1733.485 1733.485 0 0 0 144.5 50.4 A 327.044 327.044 0 0 0 144.524 54.52 Q 144.594 60.032 144.867 62.631 A 18.083 18.083 0 0 0 145 63.65 A 249.343 249.343 0 0 1 145.117 64.371 Q 145.5 66.75 145.5 67.1 A 4.465 4.465 0 0 1 144.51 69.858 Q 143.535 71.134 141.6 72.25 A 17.947 17.947 0 0 1 138.026 73.846 A 13.684 13.684 0 0 1 133.9 74.5 A 1.743 1.743 0 0 1 133.312 74.409 Q 132.543 74.134 132.502 73.025 A 3.444 3.444 0 0 1 132.5 72.9 L 132.7 71 Q 134.9 54.2 134.9 34.6 Q 134.9 27 134.3 19.2 L 134.2 17 A 16.478 16.478 0 0 0 133.881 14.703 Q 133.622 13.497 133.18 12.485 A 9.795 9.795 0 0 0 133.05 12.2 Q 132.1 10.2 131.3 9.6 L 130.4 9.1 Q 129.719 8.711 129.701 8.226 A 0.709 0.709 0 0 1 129.7 8.2 Q 129.7 7.042 132.917 5.439 A 32.205 32.205 0 0 1 134.4 4.75 Q 138.112 3.131 140.483 2.791 A 8.253 8.253 0 0 1 141.65 2.7 A 9.028 9.028 0 0 1 142.524 2.739 Q 144.145 2.897 144.378 3.706 A 0.962 0.962 0 0 1 144.4 3.8 Q 144.706 7.705 144.778 14.365 A 403.366 403.366 0 0 1 144.8 18.7 Z M 339.4 18.7 L 339.3 28.4 A 1.331 1.331 0 0 0 339.315 28.612 Q 339.375 28.982 339.671 28.999 A 0.505 0.505 0 0 0 339.7 29 A 1.159 1.159 0 0 0 340.175 28.894 Q 340.338 28.822 340.5 28.7 A 7.887 7.887 0 0 1 342.507 27.75 Q 344.49 27.106 347.417 27.015 A 31.797 31.797 0 0 1 348.4 27 A 20.729 20.729 0 0 1 353.076 27.491 Q 356.076 28.186 358.186 29.866 A 11.325 11.325 0 0 1 361 33.2 A 9.014 9.014 0 0 1 361.866 35.408 Q 362.137 36.467 362.239 37.723 A 19.527 19.527 0 0 1 362.3 39.3 Q 362.3 42.209 362.036 46.819 A 302.457 302.457 0 0 1 361.85 49.8 Q 361.436 55.97 361.403 58.833 A 40.902 40.902 0 0 0 361.4 59.3 Q 361.4 69.1 364.2 72.3 A 2.254 2.254 0 0 1 364.458 72.605 Q 364.585 72.787 364.645 72.969 A 1.048 1.048 0 0 1 364.7 73.3 A 0.567 0.567 0 0 1 364.372 73.776 Q 363.574 74.262 360.839 74.297 A 34.141 34.141 0 0 1 360.4 74.3 Q 350.539 74.3 349.061 66.496 A 16.113 16.113 0 0 1 348.8 63.5 Q 348.8 59.3 350.8 51.7 Q 352.339 45.854 352.694 42.374 A 18.648 18.648 0 0 0 352.8 40.5 A 12.227 12.227 0 0 0 352.621 38.339 Q 352.409 37.158 351.944 36.222 A 5.954 5.954 0 0 0 351.1 34.95 A 5.565 5.565 0 0 0 347.65 33.093 A 8.055 8.055 0 0 0 346.4 33 Q 343.4 33 341.65 34.3 A 8.604 8.604 0 0 0 340.689 35.121 Q 340.232 35.579 339.935 36.049 A 3.659 3.659 0 0 0 339.5 37 L 339.2 38.3 A 36.937 36.937 0 0 0 339.166 39.304 Q 339.112 41.614 339.102 47.629 A 1733.485 1733.485 0 0 0 339.1 50.4 A 327.044 327.044 0 0 0 339.124 54.52 Q 339.194 60.032 339.467 62.631 A 18.083 18.083 0 0 0 339.6 63.65 A 249.343 249.343 0 0 1 339.717 64.371 Q 340.1 66.75 340.1 67.1 A 4.465 4.465 0 0 1 339.11 69.858 Q 338.135 71.134 336.2 72.25 A 17.947 17.947 0 0 1 332.626 73.846 A 13.684 13.684 0 0 1 328.5 74.5 A 1.743 1.743 0 0 1 327.912 74.409 Q 327.143 74.134 327.102 73.025 A 3.444 3.444 0 0 1 327.1 72.9 L 327.3 71 Q 329.5 54.2 329.5 34.6 Q 329.5 27 328.9 19.2 L 328.8 17 A 16.478 16.478 0 0 0 328.481 14.703 Q 328.222 13.497 327.78 12.485 A 9.795 9.795 0 0 0 327.65 12.2 Q 326.7 10.2 325.9 9.6 L 325 9.1 Q 324.319 8.711 324.301 8.226 A 0.709 0.709 0 0 1 324.3 8.2 Q 324.3 7.042 327.517 5.439 A 32.205 32.205 0 0 1 329 4.75 Q 332.712 3.131 335.083 2.791 A 8.253 8.253 0 0 1 336.25 2.7 A 9.028 9.028 0 0 1 337.124 2.739 Q 338.745 2.897 338.978 3.706 A 0.962 0.962 0 0 1 339 3.8 Q 339.306 7.705 339.378 14.365 A 403.366 403.366 0 0 1 339.4 18.7 Z M 103.4 42.4 L 103.2 55.2 Q 103.2 66.218 105.19 69.961 A 4.67 4.67 0 0 0 106.1 71.2 A 1.474 1.474 0 0 1 106.359 71.542 A 1.16 1.16 0 0 1 106.5 72.1 A 0.851 0.851 0 0 1 106.007 72.815 Q 104.811 73.543 100.709 73.596 A 51.214 51.214 0 0 1 100.05 73.6 A 16.398 16.398 0 0 1 97.72 73.449 Q 95.123 73.074 94.009 71.767 A 3.522 3.522 0 0 1 93.2 69.8 A 9.722 9.722 0 0 1 93.161 69.315 Q 93.1 68.288 93.1 66.1 L 93.5 50.1 Q 93.5 49.4 92.7 49.4 Q 87.9 49.4 83.7 52.1 A 11.073 11.073 0 0 0 81.485 53.934 A 7.289 7.289 0 0 0 79.5 59 A 6.683 6.683 0 0 0 79.73 60.791 A 5.28 5.28 0 0 0 80.7 62.7 Q 81.9 64.2 83.65 64.2 A 7.244 7.244 0 0 0 84.878 64.102 Q 85.592 63.979 86.174 63.702 A 4.108 4.108 0 0 0 86.55 63.5 A 152.561 152.561 0 0 1 86.948 63.259 Q 87.631 62.846 87.845 62.729 A 1.827 1.827 0 0 1 87.9 62.7 Q 89.402 62.877 89.577 65.512 A 11.16 11.16 0 0 1 89.6 66.25 A 5.974 5.974 0 0 1 87.474 70.907 A 8.726 8.726 0 0 1 86.5 71.65 A 12.478 12.478 0 0 1 82.943 73.301 A 10.977 10.977 0 0 1 80 73.7 Q 76.72 73.7 74.325 72.584 A 10.017 10.017 0 0 1 74.15 72.5 A 14.058 14.058 0 0 1 72.641 71.65 Q 71.906 71.17 71.356 70.649 A 6.305 6.305 0 0 1 70.6 69.8 A 13.412 13.412 0 0 1 69.077 67.099 A 15.461 15.461 0 0 1 68.8 66.4 A 19.396 19.396 0 0 1 68.373 64.759 Q 68.1 63.463 68.1 62.4 A 18.021 18.021 0 0 1 68.758 57.405 A 13.631 13.631 0 0 1 72.5 51.2 A 23.21 23.21 0 0 1 79.352 46.721 A 30.399 30.399 0 0 1 83.8 45.2 A 96.123 96.123 0 0 0 86.671 44.59 Q 92.969 43.142 93.3 41.9 A 5.796 5.796 0 0 0 93.431 41.256 Q 93.545 40.513 93.582 39.389 A 36.097 36.097 0 0 0 93.6 38.2 Q 93.6 33.992 90.195 33.125 A 8.105 8.105 0 0 0 88.2 32.9 Q 85.9 32.9 84.1 34.35 A 5.025 5.025 0 0 0 82.902 35.707 A 4.432 4.432 0 0 0 82.3 38 L 82.9 40.4 A 1.686 1.686 0 0 1 82.087 41.637 Q 81.186 42.234 79.3 42.4 L 78.2 42.5 A 9.738 9.738 0 0 1 76.285 42.323 Q 74.598 41.984 73.45 41 A 4.916 4.916 0 0 1 71.713 37.422 A 6.791 6.791 0 0 1 71.7 37 A 5.787 5.787 0 0 1 71.901 35.533 Q 72.075 34.871 72.398 34.158 A 11.691 11.691 0 0 1 72.75 33.45 A 10.117 10.117 0 0 1 74.234 31.352 A 8.752 8.752 0 0 1 75.4 30.3 A 8.559 8.559 0 0 1 76.571 29.575 Q 77.839 28.912 79.719 28.336 A 31.556 31.556 0 0 1 80.35 28.15 A 25.255 25.255 0 0 1 84.44 27.334 A 21.28 21.28 0 0 1 86.8 27.2 Q 89.355 27.2 90.959 27.336 A 19.819 19.819 0 0 1 91.6 27.4 A 20.425 20.425 0 0 1 92.768 27.576 Q 94.008 27.796 95.688 28.209 A 77.138 77.138 0 0 1 96.25 28.35 A 10.173 10.173 0 0 1 99.727 29.942 A 9.577 9.577 0 0 1 101.15 31.2 A 9.024 9.024 0 0 1 102.399 32.879 A 6.389 6.389 0 0 1 103.25 35.65 Q 103.365 37.449 103.392 40.45 A 217.947 217.947 0 0 1 103.4 42.4 Z M 401.1 42.4 L 400.9 55.2 Q 400.9 66.218 402.89 69.961 A 4.67 4.67 0 0 0 403.8 71.2 A 1.474 1.474 0 0 1 404.059 71.542 A 1.16 1.16 0 0 1 404.2 72.1 A 0.851 0.851 0 0 1 403.707 72.815 Q 402.511 73.543 398.409 73.596 A 51.214 51.214 0 0 1 397.75 73.6 A 16.398 16.398 0 0 1 395.42 73.449 Q 392.823 73.074 391.709 71.767 A 3.522 3.522 0 0 1 390.9 69.8 A 9.722 9.722 0 0 1 390.861 69.315 Q 390.8 68.288 390.8 66.1 L 391.2 50.1 Q 391.2 49.4 390.4 49.4 Q 385.6 49.4 381.4 52.1 A 11.073 11.073 0 0 0 379.185 53.934 A 7.289 7.289 0 0 0 377.2 59 A 6.683 6.683 0 0 0 377.43 60.791 A 5.28 5.28 0 0 0 378.4 62.7 Q 379.6 64.2 381.35 64.2 A 7.244 7.244 0 0 0 382.578 64.102 Q 383.292 63.979 383.874 63.702 A 4.108 4.108 0 0 0 384.25 63.5 A 152.561 152.561 0 0 1 384.648 63.259 Q 385.331 62.846 385.545 62.729 A 1.827 1.827 0 0 1 385.6 62.7 Q 387.102 62.877 387.277 65.512 A 11.16 11.16 0 0 1 387.3 66.25 A 5.974 5.974 0 0 1 385.174 70.907 A 8.726 8.726 0 0 1 384.2 71.65 A 12.478 12.478 0 0 1 380.643 73.301 A 10.977 10.977 0 0 1 377.7 73.7 Q 374.42 73.7 372.025 72.584 A 10.017 10.017 0 0 1 371.85 72.5 A 14.058 14.058 0 0 1 370.341 71.65 Q 369.606 71.17 369.056 70.649 A 6.305 6.305 0 0 1 368.3 69.8 A 13.412 13.412 0 0 1 366.777 67.099 A 15.461 15.461 0 0 1 366.5 66.4 A 19.396 19.396 0 0 1 366.073 64.759 Q 365.8 63.463 365.8 62.4 A 18.021 18.021 0 0 1 366.458 57.405 A 13.631 13.631 0 0 1 370.2 51.2 A 23.21 23.21 0 0 1 377.052 46.721 A 30.399 30.399 0 0 1 381.5 45.2 A 96.123 96.123 0 0 0 384.371 44.59 Q 390.669 43.142 391 41.9 A 5.796 5.796 0 0 0 391.131 41.256 Q 391.245 40.513 391.282 39.389 A 36.097 36.097 0 0 0 391.3 38.2 Q 391.3 33.992 387.895 33.125 A 8.105 8.105 0 0 0 385.9 32.9 Q 383.6 32.9 381.8 34.35 A 5.025 5.025 0 0 0 380.602 35.707 A 4.432 4.432 0 0 0 380 38 L 380.6 40.4 A 1.686 1.686 0 0 1 379.787 41.637 Q 378.886 42.234 377 42.4 L 375.9 42.5 A 9.738 9.738 0 0 1 373.985 42.323 Q 372.298 41.984 371.15 41 A 4.916 4.916 0 0 1 369.413 37.422 A 6.791 6.791 0 0 1 369.4 37 A 5.787 5.787 0 0 1 369.601 35.533 Q 369.775 34.871 370.098 34.158 A 11.691 11.691 0 0 1 370.45 33.45 A 10.117 10.117 0 0 1 371.934 31.352 A 8.752 8.752 0 0 1 373.1 30.3 A 8.559 8.559 0 0 1 374.271 29.575 Q 375.539 28.912 377.419 28.336 A 31.556 31.556 0 0 1 378.05 28.15 A 25.255 25.255 0 0 1 382.14 27.334 A 21.28 21.28 0 0 1 384.5 27.2 Q 387.055 27.2 388.659 27.336 A 19.819 19.819 0 0 1 389.3 27.4 A 20.425 20.425 0 0 1 390.468 27.576 Q 391.708 27.796 393.388 28.209 A 77.138 77.138 0 0 1 393.95 28.35 A 10.173 10.173 0 0 1 397.427 29.942 A 9.577 9.577 0 0 1 398.85 31.2 A 9.024 9.024 0 0 1 400.099 32.879 A 6.389 6.389 0 0 1 400.95 35.65 Q 401.065 37.449 401.092 40.45 A 217.947 217.947 0 0 1 401.1 42.4 Z M 480.5 42.4 L 480.3 55.2 Q 480.3 66.218 482.29 69.961 A 4.67 4.67 0 0 0 483.2 71.2 A 1.474 1.474 0 0 1 483.459 71.542 A 1.16 1.16 0 0 1 483.6 72.1 A 0.851 0.851 0 0 1 483.107 72.815 Q 481.911 73.543 477.809 73.596 A 51.214 51.214 0 0 1 477.15 73.6 A 16.398 16.398 0 0 1 474.82 73.449 Q 472.223 73.074 471.109 71.767 A 3.522 3.522 0 0 1 470.3 69.8 A 9.722 9.722 0 0 1 470.261 69.315 Q 470.2 68.288 470.2 66.1 L 470.6 50.1 Q 470.6 49.4 469.8 49.4 Q 465 49.4 460.8 52.1 A 11.073 11.073 0 0 0 458.585 53.934 A 7.289 7.289 0 0 0 456.6 59 A 6.683 6.683 0 0 0 456.83 60.791 A 5.28 5.28 0 0 0 457.8 62.7 Q 459 64.2 460.75 64.2 A 7.244 7.244 0 0 0 461.978 64.102 Q 462.692 63.979 463.274 63.702 A 4.108 4.108 0 0 0 463.65 63.5 A 152.561 152.561 0 0 1 464.048 63.259 Q 464.731 62.846 464.945 62.729 A 1.827 1.827 0 0 1 465 62.7 Q 466.502 62.877 466.677 65.512 A 11.16 11.16 0 0 1 466.7 66.25 A 5.974 5.974 0 0 1 464.574 70.907 A 8.726 8.726 0 0 1 463.6 71.65 A 12.478 12.478 0 0 1 460.043 73.301 A 10.977 10.977 0 0 1 457.1 73.7 Q 453.82 73.7 451.425 72.584 A 10.017 10.017 0 0 1 451.25 72.5 A 14.058 14.058 0 0 1 449.741 71.65 Q 449.006 71.17 448.456 70.649 A 6.305 6.305 0 0 1 447.7 69.8 A 13.412 13.412 0 0 1 446.177 67.099 A 15.461 15.461 0 0 1 445.9 66.4 A 19.396 19.396 0 0 1 445.473 64.759 Q 445.2 63.463 445.2 62.4 A 18.021 18.021 0 0 1 445.858 57.405 A 13.631 13.631 0 0 1 449.6 51.2 A 23.21 23.21 0 0 1 456.452 46.721 A 30.399 30.399 0 0 1 460.9 45.2 A 96.123 96.123 0 0 0 463.771 44.59 Q 470.069 43.142 470.4 41.9 A 5.796 5.796 0 0 0 470.531 41.256 Q 470.645 40.513 470.682 39.389 A 36.097 36.097 0 0 0 470.7 38.2 Q 470.7 33.992 467.295 33.125 A 8.105 8.105 0 0 0 465.3 32.9 Q 463 32.9 461.2 34.35 A 5.025 5.025 0 0 0 460.002 35.707 A 4.432 4.432 0 0 0 459.4 38 L 460 40.4 A 1.686 1.686 0 0 1 459.187 41.637 Q 458.286 42.234 456.4 42.4 L 455.3 42.5 A 9.738 9.738 0 0 1 453.385 42.323 Q 451.698 41.984 450.55 41 A 4.916 4.916 0 0 1 448.813 37.422 A 6.791 6.791 0 0 1 448.8 37 A 5.787 5.787 0 0 1 449.001 35.533 Q 449.175 34.871 449.498 34.158 A 11.691 11.691 0 0 1 449.85 33.45 A 10.117 10.117 0 0 1 451.334 31.352 A 8.752 8.752 0 0 1 452.5 30.3 A 8.559 8.559 0 0 1 453.671 29.575 Q 454.939 28.912 456.819 28.336 A 31.556 31.556 0 0 1 457.45 28.15 A 25.255 25.255 0 0 1 461.54 27.334 A 21.28 21.28 0 0 1 463.9 27.2 Q 466.455 27.2 468.059 27.336 A 19.819 19.819 0 0 1 468.7 27.4 A 20.425 20.425 0 0 1 469.868 27.576 Q 471.108 27.796 472.788 28.209 A 77.138 77.138 0 0 1 473.35 28.35 A 10.173 10.173 0 0 1 476.827 29.942 A 9.577 9.577 0 0 1 478.25 31.2 A 9.024 9.024 0 0 1 479.499 32.879 A 6.389 6.389 0 0 1 480.35 35.65 Q 480.465 37.449 480.492 40.45 A 217.947 217.947 0 0 1 480.5 42.4 Z M 419.6 66.3 L 419.8 68.5 A 3.881 3.881 0 0 1 418.41 71.48 Q 417.817 72.014 416.971 72.461 A 10.711 10.711 0 0 1 416.15 72.85 A 24.803 24.803 0 0 1 413.76 73.732 Q 411.59 74.4 409.85 74.4 Q 407.2 74.4 407.2 73.1 A 119.614 119.614 0 0 0 408.365 63.615 Q 408.762 58.959 408.911 53.711 A 230.021 230.021 0 0 0 409 47.2 Q 409 32.1 408.1 27.6 A 0.975 0.975 0 0 1 408.654 26.723 Q 409.389 26.3 411.1 26.3 A 9.313 9.313 0 0 1 413.325 26.547 Q 414.972 26.952 416.029 28.023 A 5.682 5.682 0 0 1 417.2 29.8 A 0.402 0.402 0 0 0 417.477 30.07 Q 417.555 30.094 417.654 30.099 A 0.998 0.998 0 0 0 417.7 30.1 A 1.275 1.275 0 0 0 417.925 30.082 Q 418.161 30.039 418.3 29.9 A 9.542 9.542 0 0 1 422.064 27.564 Q 423.596 27.026 425.485 26.823 A 22.642 22.642 0 0 1 427.9 26.7 Q 433.28 26.7 436.811 28.961 A 11.921 11.921 0 0 1 438.2 30 Q 441.959 33.265 442 39.465 A 20.735 20.735 0 0 1 442 39.6 Q 442 42.509 441.619 47.295 A 237.908 237.908 0 0 1 441.35 50.4 Q 440.712 57.273 440.7 60.676 A 36.601 36.601 0 0 0 440.7 60.8 Q 440.7 68.9 443.4 72.5 A 2.142 2.142 0 0 1 443.636 72.859 Q 443.762 73.105 443.791 73.35 A 1.258 1.258 0 0 1 443.8 73.5 A 1.007 1.007 0 0 1 443.205 74.422 Q 442.703 74.695 441.777 74.771 A 9.555 9.555 0 0 1 441 74.8 A 20.352 20.352 0 0 1 436.321 74.311 Q 430 72.812 428.854 66.722 A 15.813 15.813 0 0 1 428.6 63.8 A 26.155 26.155 0 0 1 428.776 60.934 Q 429.12 57.847 430.131 53.599 A 107.837 107.837 0 0 1 430.5 52.1 A 102.462 102.462 0 0 0 431.331 48.575 Q 432.4 43.625 432.4 40.7 Q 432.4 33.576 427.166 32.796 A 9.272 9.272 0 0 0 425.8 32.7 Q 422.6 32.7 420.95 34.6 Q 419.3 36.5 419.1 38.95 A 38.056 38.056 0 0 0 419.017 40.337 Q 418.9 42.994 418.9 48.2 A 265.971 265.971 0 0 0 418.998 55.62 Q 419.101 59.287 419.31 62.542 A 142.744 142.744 0 0 0 419.6 66.3 Z M 499 66.3 L 499.2 68.5 A 3.881 3.881 0 0 1 497.81 71.48 Q 497.217 72.014 496.371 72.461 A 10.711 10.711 0 0 1 495.55 72.85 A 24.803 24.803 0 0 1 493.16 73.732 Q 490.99 74.4 489.25 74.4 Q 486.6 74.4 486.6 73.1 A 119.614 119.614 0 0 0 487.765 63.615 Q 488.162 58.959 488.311 53.711 A 230.021 230.021 0 0 0 488.4 47.2 Q 488.4 32.1 487.5 27.6 A 0.975 0.975 0 0 1 488.054 26.723 Q 488.789 26.3 490.5 26.3 A 9.313 9.313 0 0 1 492.725 26.547 Q 494.372 26.952 495.429 28.023 A 5.682 5.682 0 0 1 496.6 29.8 A 0.402 0.402 0 0 0 496.877 30.07 Q 496.955 30.094 497.054 30.099 A 0.998 0.998 0 0 0 497.1 30.1 A 1.275 1.275 0 0 0 497.325 30.082 Q 497.561 30.039 497.7 29.9 A 9.542 9.542 0 0 1 501.464 27.564 Q 502.996 27.026 504.885 26.823 A 22.642 22.642 0 0 1 507.3 26.7 Q 512.68 26.7 516.211 28.961 A 11.921 11.921 0 0 1 517.6 30 Q 521.359 33.265 521.4 39.465 A 20.735 20.735 0 0 1 521.4 39.6 Q 521.4 42.509 521.019 47.295 A 237.908 237.908 0 0 1 520.75 50.4 Q 520.112 57.273 520.1 60.676 A 36.601 36.601 0 0 0 520.1 60.8 Q 520.1 68.9 522.8 72.5 A 2.142 2.142 0 0 1 523.036 72.859 Q 523.162 73.105 523.191 73.35 A 1.258 1.258 0 0 1 523.2 73.5 A 1.007 1.007 0 0 1 522.605 74.422 Q 522.103 74.695 521.177 74.771 A 9.555 9.555 0 0 1 520.4 74.8 A 20.352 20.352 0 0 1 515.721 74.311 Q 509.4 72.812 508.254 66.722 A 15.813 15.813 0 0 1 508 63.8 A 26.155 26.155 0 0 1 508.176 60.934 Q 508.52 57.847 509.531 53.599 A 107.837 107.837 0 0 1 509.9 52.1 A 102.462 102.462 0 0 0 510.731 48.575 Q 511.8 43.625 511.8 40.7 Q 511.8 33.576 506.566 32.796 A 9.272 9.272 0 0 0 505.2 32.7 Q 502 32.7 500.35 34.6 Q 498.7 36.5 498.5 38.95 A 38.056 38.056 0 0 0 498.417 40.337 Q 498.3 42.994 498.3 48.2 A 265.971 265.971 0 0 0 498.398 55.62 Q 498.501 59.287 498.71 62.542 A 142.744 142.744 0 0 0 499 66.3 Z M 279.7 71.6 L 280.1 72.9 A 1.076 1.076 0 0 1 279.451 73.929 Q 278.905 74.2 277.9 74.2 Q 272.225 74.2 270.135 71.864 A 4.611 4.611 0 0 1 269.1 69.9 A 1.136 1.136 0 0 0 269.044 69.706 Q 269.006 69.608 268.951 69.541 A 0.371 0.371 0 0 0 268.65 69.4 Q 268.357 69.4 268.099 69.681 A 1.551 1.551 0 0 0 268 69.8 A 9.901 9.901 0 0 1 262.321 73.453 Q 260.656 73.872 258.667 73.898 A 20.281 20.281 0 0 1 258.4 73.9 A 16.055 16.055 0 0 1 254.019 73.266 A 21.267 21.267 0 0 1 250.9 72.1 Q 248.5 71 247 68.25 A 11.714 11.714 0 0 1 245.841 65.029 Q 245.5 63.406 245.5 61.5 L 247 39.6 Q 247 34.239 246.155 31.293 A 9.411 9.411 0 0 0 245.6 29.8 A 18.74 18.74 0 0 1 245.43 29.416 Q 245.1 28.644 245.1 28.4 A 1.102 1.102 0 0 1 245.14 28.094 A 0.733 0.733 0 0 1 245.6 27.6 Q 246.763 27.237 248.4 27.137 A 21.505 21.505 0 0 1 249.7 27.1 A 17.179 17.179 0 0 1 253.301 27.443 Q 258.558 28.575 259.284 33.444 A 11.235 11.235 0 0 1 259.4 35.1 Q 259.4 37.13 258.049 43.378 A 239.606 239.606 0 0 1 257.35 46.5 Q 255.334 55.252 255.301 59.024 A 14.196 14.196 0 0 0 255.3 59.15 Q 255.3 61.682 256.052 63.416 A 6.179 6.179 0 0 0 256.95 64.9 A 5.387 5.387 0 0 0 260.574 66.841 A 7.798 7.798 0 0 0 261.55 66.9 A 6.654 6.654 0 0 0 263.664 66.58 A 5.416 5.416 0 0 0 266.2 64.8 A 11.103 11.103 0 0 0 267.332 63.127 Q 268.02 61.863 268.2 60.6 L 268.5 58.5 Q 268.868 55.277 268.898 47.559 A 360.135 360.135 0 0 0 268.9 46.2 A 227.154 227.154 0 0 0 268.881 43.127 Q 268.797 36.959 268.35 35.05 A 68.205 68.205 0 0 1 268.163 34.23 Q 267.889 32.992 267.822 32.41 A 2.807 2.807 0 0 1 267.8 32.1 Q 267.8 29.702 271.479 28.271 A 14.663 14.663 0 0 1 271.8 28.15 Q 275.188 26.922 278.002 26.734 A 14.979 14.979 0 0 1 279 26.7 A 2.752 2.752 0 0 1 279.548 26.75 Q 280.392 26.922 280.488 27.693 A 1.681 1.681 0 0 1 280.5 27.9 A 113.425 113.425 0 0 0 279.439 36.425 Q 278.7 44.702 278.7 55.4 A 239.365 239.365 0 0 0 278.748 60.379 Q 278.889 67.116 279.444 70.371 A 15.496 15.496 0 0 0 279.7 71.6 Z M 108 33.4 L 108.3 29.4 Q 108.382 28.66 109.276 28.529 A 2.923 2.923 0 0 1 109.7 28.5 L 113.2 28.5 L 112.8 20.5 L 112.8 20.1 Q 112.8 17.8 116.3 15.7 Q 118.867 14.16 121.111 13.749 A 8.821 8.821 0 0 1 122.7 13.6 A 1.474 1.474 0 0 1 123.04 13.636 Q 123.6 13.769 123.6 14.4 L 123.6 14.5 Q 123.2 17.2 122.8 28.4 Q 127.2 28.4 128.4 28.2 Q 129.6 28 129.7 28 A 0.579 0.579 0 0 1 130.254 28.354 Q 130.383 28.617 130.398 29.074 A 3.791 3.791 0 0 1 130.4 29.2 Q 130.4 30.287 129.498 31.906 A 14.022 14.022 0 0 1 129.3 32.25 Q 128.289 33.951 127.109 34.173 A 1.93 1.93 0 0 1 126.9 34.2 L 122.7 34.2 A 156.059 156.059 0 0 0 122.656 36.191 Q 122.606 39.252 122.601 44.406 A 1209.274 1209.274 0 0 0 122.6 45.65 Q 122.6 53.299 122.735 58.375 A 242.863 242.863 0 0 0 122.75 58.9 Q 122.9 64.1 123.1 66.75 Q 123.3 69.4 123.55 71 Q 123.78 72.474 123.926 73.184 A 13.061 13.061 0 0 0 123.95 73.3 Q 124.07 73.86 124.094 74.1 A 1.037 1.037 0 0 1 124.1 74.2 A 1.097 1.097 0 0 1 123.991 74.703 Q 123.724 75.229 122.8 75.3 Q 118.9 75.3 115.05 74.2 A 9.417 9.417 0 0 1 113.55 73.642 Q 111.2 72.509 111.2 70.4 A 270.88 270.88 0 0 0 113.005 48.424 A 329.732 329.732 0 0 0 113.3 34.3 Q 111.077 34.3 109.735 34.436 A 13.139 13.139 0 0 0 109.2 34.5 L 109.1 34.5 A 1.077 1.077 0 0 1 108.595 34.387 Q 108.175 34.168 108.026 33.524 A 2.62 2.62 0 0 1 108 33.4 Z M 175.4 69.4 L 176.5 46.1 A 56.956 56.956 0 0 0 176.389 42.391 Q 176.04 37.074 174.6 34.8 A 5.315 5.315 0 0 0 174.037 34.021 Q 173.65 33.581 173.2 33.3 Q 172.644 33.115 172.603 32.586 A 1.117 1.117 0 0 1 172.6 32.5 A 1.633 1.633 0 0 1 173.05 31.44 Q 173.945 30.393 176.626 29.381 A 29.032 29.032 0 0 1 177.7 29 Q 182.8 27.3 185.15 27.3 A 6.96 6.96 0 0 1 185.952 27.342 Q 186.789 27.44 187.202 27.764 A 1.005 1.005 0 0 1 187.6 28.5 Q 187.6 30.371 187.118 38.678 A 1383.124 1383.124 0 0 1 187.05 39.85 Q 186.5 49.2 186.5 59.5 A 141.596 141.596 0 0 0 186.542 63.088 Q 186.725 70.269 187.7 72.3 A 2.227 2.227 0 0 1 187.915 72.769 A 1.741 1.741 0 0 1 188 73.3 Q 188 74.466 184.941 74.586 A 18.959 18.959 0 0 1 184.2 74.6 Q 180.4 74.6 176.4 72.6 Q 175.429 72.114 175.401 69.553 A 14.074 14.074 0 0 1 175.4 69.4 Z M 183.4 18.9 L 181 18.8 Q 178.3 18.8 177.5 20.1 A 0.819 0.819 0 0 1 177.365 20.258 A 0.533 0.533 0 0 1 177 20.4 A 0.813 0.813 0 0 1 176.308 19.955 Q 175.84 19.214 175.732 17.244 A 23.792 23.792 0 0 1 175.7 15.95 A 22.865 22.865 0 0 1 175.765 14.159 Q 175.98 11.427 176.917 10.43 A 2.066 2.066 0 0 1 177.05 10.3 A 3.789 3.789 0 0 1 178.214 9.617 Q 179.314 9.192 180.999 9.116 A 16.833 16.833 0 0 1 181.75 9.1 A 15.28 15.28 0 0 1 183.269 9.17 Q 185.395 9.383 186.3 10.25 A 3.338 3.338 0 0 1 187.077 11.44 Q 187.474 12.431 187.498 13.902 A 11.768 11.768 0 0 1 187.5 14.1 A 12.79 12.79 0 0 1 187.444 15.347 Q 187.275 17.063 186.6 17.85 A 2.556 2.556 0 0 1 185.638 18.53 Q 184.821 18.877 183.57 18.899 A 9.739 9.739 0 0 1 183.4 18.9 Z" vector-effect="non-scaling-stroke"/></g></svg>